<svg width="200" height="200" viewBox="0 0 454 454" fill="none" xmlns="http://www.w3.org/2000/svg">
<g id="Group 1">
<circle id="ellipse" cx="227" cy="227" r="123" fill="#FFC400"/>
<path id="Arrow 1" d="M249.768 228.768C250.744 227.791 250.744 226.209 249.768 225.232L233.858 209.322C232.882 208.346 231.299 208.346 230.322 209.322C229.346 210.299 229.346 211.882 230.322 212.858L244.464 227L230.322 241.142C229.346 242.118 229.346 243.701 230.322 244.678C231.299 245.654 232.882 245.654 233.858 244.678L249.768 228.768ZM206 229.5H248V224.5H206V229.5Z" fill="black"/>
<g id="text">
<path id="C" d="M218.214 408H220.856C221.013 408.76 221.286 409.428 221.677 410.003C222.06 410.578 222.529 411.061 223.083 411.452C223.63 411.849 224.237 412.148 224.905 412.347C225.572 412.545 226.268 412.645 226.993 412.645C228.314 412.645 229.51 412.311 230.583 411.643C231.648 410.976 232.497 409.992 233.129 408.692C233.754 407.393 234.066 405.798 234.066 403.909C234.066 402.02 233.754 400.425 233.129 399.126C232.497 397.826 231.648 396.842 230.583 396.175C229.51 395.507 228.314 395.173 226.993 395.173C226.268 395.173 225.572 395.273 224.905 395.472C224.237 395.67 223.63 395.965 223.083 396.356C222.529 396.754 222.06 397.24 221.677 397.815C221.286 398.398 221.013 399.065 220.856 399.818H218.214C218.413 398.703 218.775 397.705 219.301 396.825C219.826 395.944 220.48 395.195 221.261 394.577C222.042 393.966 222.919 393.501 223.892 393.181C224.858 392.862 225.892 392.702 226.993 392.702C228.853 392.702 230.508 393.156 231.957 394.065C233.406 394.974 234.546 396.267 235.377 397.943C236.208 399.619 236.623 401.608 236.623 403.909C236.623 406.21 236.208 408.199 235.377 409.875C234.546 411.551 233.406 412.844 231.957 413.753C230.508 414.662 228.853 415.116 226.993 415.116C225.892 415.116 224.858 414.957 223.892 414.637C222.919 414.317 222.042 413.849 221.261 413.231C220.48 412.62 219.826 411.874 219.301 410.994C218.775 410.12 218.413 409.122 218.214 408Z" fill="black"/>
<path id="O" d="M189.251 399.876C189.611 397.603 190.333 395.704 191.415 394.179C192.498 392.653 193.826 391.555 195.4 390.883C196.973 390.212 198.679 390.022 200.516 390.313C202.354 390.604 203.918 391.312 205.206 392.437C206.495 393.561 207.419 395.016 207.977 396.802C208.536 398.587 208.635 400.616 208.275 402.889C207.915 405.162 207.194 407.061 206.111 408.587C205.028 410.112 203.7 411.21 202.127 411.882C200.553 412.553 198.848 412.743 197.01 412.452C195.172 412.161 193.609 411.453 192.32 410.328C191.031 409.204 190.107 407.749 189.549 405.963C188.99 404.178 188.891 402.149 189.251 399.876ZM191.776 400.276C191.481 402.142 191.544 403.766 191.965 405.149C192.379 406.53 193.063 407.635 194.018 408.462C194.966 409.288 196.092 409.804 197.397 410.011C198.701 410.217 199.936 410.075 201.099 409.583C202.256 409.091 203.248 408.252 204.076 407.067C204.896 405.881 205.454 404.355 205.75 402.489C206.045 400.623 205.986 398.999 205.572 397.618C205.151 396.235 204.467 395.131 203.519 394.305C202.564 393.478 201.435 392.961 200.13 392.754C198.825 392.548 197.594 392.691 196.438 393.183C195.274 393.675 194.282 394.514 193.461 395.7C192.634 396.885 192.072 398.41 191.776 400.276Z" fill="black"/>
<path id="N" d="M160.174 402.454L166.916 381.704L169.348 382.494L175.361 402.46L175.564 402.526L180.858 386.234L183.37 387.05L176.628 407.801L174.197 407.01L168.156 386.991L167.953 386.925L162.646 403.258L160.174 402.454Z" fill="black"/>
<path id="T" d="M150.382 395.75L149.318 397.838L134.737 390.409L135.801 388.321L141.914 391.435L150.756 374.083L153.11 375.283L144.269 392.635L150.382 395.75Z" fill="black"/>
<path id="A" d="M134.287 364.391L136.528 366.019L117.223 378.961L115.016 377.358L121.359 354.998L123.6 356.626L118.079 375.317L118.217 375.417L134.287 364.391ZM128.45 370.685L119.418 364.122L120.796 362.226L129.828 368.789L128.45 370.685Z" fill="black"/>
<path id="C_2" d="M92.7023 348.166L94.5705 350.034C94.1436 350.682 93.8649 351.347 93.7343 352.03C93.5987 352.708 93.5887 353.381 93.7042 354.049C93.8097 354.717 94.0281 355.357 94.3596 355.97C94.691 356.583 95.1129 357.145 95.6251 357.657C96.5592 358.591 97.6415 359.202 98.8719 359.488C100.097 359.769 101.393 359.674 102.759 359.202C104.12 358.725 105.468 357.818 106.804 356.482C108.14 355.146 109.047 353.798 109.524 352.437C109.996 351.071 110.091 349.775 109.81 348.55C109.524 347.319 108.914 346.237 107.979 345.303C107.467 344.791 106.905 344.369 106.292 344.038C105.679 343.706 105.042 343.485 104.379 343.375C103.706 343.264 103.03 343.277 102.352 343.412C101.664 343.548 100.999 343.827 100.356 344.248L98.4877 342.38C99.4168 341.732 100.379 341.283 101.373 341.032C102.367 340.781 103.359 340.713 104.348 340.828C105.333 340.949 106.282 341.24 107.196 341.702C108.105 342.159 108.949 342.777 109.727 343.555C111.043 344.871 111.892 346.363 112.273 348.03C112.655 349.697 112.547 351.417 111.949 353.19C111.352 354.963 110.239 356.663 108.612 358.29C106.985 359.917 105.285 361.03 103.512 361.627C101.74 362.225 100.019 362.333 98.3521 361.951C96.6848 361.57 95.1932 360.721 93.8775 359.405C93.099 358.627 92.4813 357.783 92.0243 356.874C91.5623 355.96 91.2735 355.008 91.158 354.019C91.0375 353.035 91.1028 352.045 91.3539 351.051C91.6 350.061 92.0494 349.1 92.7023 348.166Z" fill="black"/>
<path id="T_2" d="M81.9892 342.356L80.0931 343.734L70.4748 330.496L72.3709 329.118L76.4036 334.668L92.1587 323.222L93.7117 325.359L77.9565 336.806L81.9892 342.356Z" fill="black"/>
<path id="*" d="M60.2834 281.003L55.7727 282.289L59.3885 285.281L58.0024 286.807L54.6449 283.507L53.8685 288.15L51.8503 287.73L53.0168 283.184L48.6114 284.795L47.9793 282.85L52.49 281.563L48.8742 278.571L50.2604 277.045L53.6178 280.346L54.3942 275.702L56.4124 276.122L55.2459 280.668L59.6514 279.057L60.2834 281.003Z" fill="black"/>
<path id="J" d="M39.1818 223.15V220.508L54.7784 220.508C56.1705 220.508 57.353 220.764 58.326 221.275C59.299 221.787 60.0376 222.507 60.5419 223.438C61.0462 224.368 61.2983 225.466 61.2983 226.73C61.2983 227.923 61.0817 228.985 60.6484 229.915C60.2081 230.846 59.5831 231.577 58.7734 232.11C57.9638 232.642 57.0014 232.909 55.8864 232.909L55.8864 230.309C56.5043 230.309 57.044 230.157 57.5057 229.851C57.9602 229.539 58.3153 229.113 58.571 228.573C58.8267 228.033 58.9545 227.419 58.9545 226.73C58.9545 225.97 58.7947 225.324 58.4751 224.791C58.1555 224.258 57.6868 223.853 57.0689 223.576C56.4439 223.292 55.6804 223.15 54.7784 223.15L39.1818 223.15Z" fill="black"/>
<path id="U" d="M42.7574 190.512L43.1707 187.903L57.4389 190.163C58.912 190.396 60.1723 190.952 61.2197 191.829C62.2613 192.699 63.0158 193.814 63.4834 195.176C63.9439 196.536 64.0402 198.061 63.7725 199.752C63.5047 201.442 62.9417 202.863 62.0834 204.014C61.2182 205.164 60.1553 205.996 58.8949 206.508C57.6285 207.012 56.2588 207.147 54.7857 206.914L40.5175 204.654L40.9308 202.045L54.9886 204.271C56.0408 204.438 57.0139 204.355 57.908 204.022C58.7951 203.688 59.5413 203.13 60.1469 202.349C60.7465 201.559 61.1413 200.565 61.3313 199.365C61.5213 198.165 61.4531 197.098 61.1268 196.161C60.7935 195.224 60.2561 194.463 59.5146 193.878C58.7672 193.285 57.8673 192.905 56.8151 192.739L42.7574 190.512Z" fill="black"/>
<path id="N_2" d="M51.5457 159.405L72.2961 166.147L71.506 168.579L51.5398 174.592L51.4739 174.795L67.7662 180.089L66.9497 182.602L46.1994 175.859L46.9895 173.428L67.0094 167.387L67.0752 167.184L50.7425 161.877L51.5457 159.405Z" fill="black"/>
<path id="G" d="M69.2828 137.816C68.5372 137.7 67.8243 137.683 67.1439 137.767C66.4604 137.841 65.819 138.02 65.2197 138.305C64.6237 138.583 64.0808 138.968 63.591 139.46C63.1013 139.952 62.6775 140.549 62.3196 141.251C61.7328 142.403 61.4966 143.602 61.611 144.848C61.7254 146.094 62.2198 147.29 63.0941 148.437C63.9684 149.584 65.2472 150.586 66.9305 151.444C68.6138 152.302 70.178 152.744 71.623 152.771C73.068 152.798 74.333 152.482 75.4179 151.823C76.5029 151.164 77.3517 150.234 77.9643 149.031C78.5318 147.917 78.7943 146.816 78.7517 145.726C78.7061 144.626 78.3675 143.617 77.7361 142.697C77.1015 141.768 76.1894 141.001 74.9997 140.394L75.5191 139.75L72.5398 145.598L70.4515 144.534L74.224 137.13L76.3123 138.194C77.9133 139.009 79.1314 140.061 79.9666 141.347C80.8049 142.627 81.2453 144.031 81.2877 145.559C81.327 147.078 80.9533 148.609 80.1665 150.153C79.2895 151.875 78.1139 153.181 76.6396 154.071C75.1686 154.956 73.501 155.382 71.6368 155.348C69.7757 155.309 67.8201 154.767 65.7697 153.722C64.232 152.939 62.9541 152.028 61.936 150.992C60.9148 149.945 60.1642 148.821 59.6842 147.62C59.2041 146.419 58.9975 145.182 59.0644 143.909C59.1312 142.636 59.4822 141.376 60.1174 140.129C60.6398 139.104 61.2817 138.227 62.0432 137.499C62.8016 136.762 63.6397 136.189 64.5576 135.779C65.4724 135.361 66.4382 135.116 67.4552 135.044C68.4659 134.969 69.4878 135.083 70.5209 135.386L69.2828 137.816Z" fill="black"/>
<path id="H" d="M88.515 135.025L70.8637 122.2L72.4166 120.063L80.277 125.774L87.115 116.362L79.2547 110.651L80.8076 108.514L98.4589 121.338L96.9059 123.475L89.0111 117.74L82.1731 127.151L90.0679 132.887L88.515 135.025Z" fill="black"/>
<path id="E" d="M105.404 113.577L89.9762 98.1491L99.2871 88.8382L100.944 90.4955L93.5017 97.9382L98.7146 103.151L105.675 96.1905L107.332 97.8478L100.372 104.808L105.615 110.051L113.178 102.488L114.835 104.145L105.404 113.577Z" fill="black"/>
<path id="E_2" d="M124.589 95.8866L111.765 78.2353L122.417 70.4956L123.795 72.3918L115.28 78.5785L119.613 84.5427L127.577 78.7567L128.954 80.6528L120.991 86.4389L125.349 92.4375L134.002 86.1506L135.38 88.0467L124.589 95.8866Z" fill="black"/>
<path id="*_2" d="M172.997 59.5145L171.711 55.0037L168.719 58.6196L167.193 57.2334L170.493 53.876L165.85 53.0996L166.27 51.0813L170.816 52.2478L169.205 47.8424L171.15 47.2104L172.437 51.7211L175.429 48.1053L176.955 49.4914L173.654 52.8489L178.298 53.6253L177.878 55.6435L173.332 54.477L174.943 58.8824L172.997 59.5145Z" fill="black"/>
<path id="C_3" d="M236.786 46H234.144C233.987 45.2401 233.714 44.5724 233.323 43.9972C232.94 43.4219 232.471 42.9389 231.917 42.5483C231.37 42.1506 230.763 41.8523 230.095 41.6534C229.428 41.4545 228.732 41.3551 228.007 41.3551C226.686 41.3551 225.49 41.6889 224.417 42.3565C223.352 43.0241 222.503 44.0078 221.871 45.3075C221.246 46.6072 220.934 48.2017 220.934 50.0909C220.934 51.9801 221.246 53.5746 221.871 54.8743C222.503 56.174 223.352 57.1577 224.417 57.8253C225.49 58.4929 226.686 58.8267 228.007 58.8267C228.732 58.8267 229.428 58.7273 230.095 58.5284C230.763 58.3295 231.37 58.0348 231.917 57.6442C232.471 57.2464 232.94 56.7599 233.323 56.1847C233.714 55.6023 233.987 54.9347 234.144 54.1818H236.786C236.587 55.2969 236.225 56.2947 235.699 57.1754C235.174 58.0561 234.52 58.8054 233.739 59.4233C232.958 60.0341 232.081 60.4993 231.108 60.8189C230.142 61.1385 229.108 61.2983 228.007 61.2983C226.147 61.2983 224.492 60.8438 223.043 59.9347C221.594 59.0256 220.454 57.733 219.623 56.0568C218.792 54.3807 218.377 52.392 218.377 50.0909C218.377 47.7898 218.792 45.8011 219.623 44.125C220.454 42.4489 221.594 41.1563 223.043 40.2472C224.492 39.3381 226.147 38.8835 228.007 38.8835C229.108 38.8835 230.142 39.0433 231.108 39.3629C232.081 39.6825 232.958 40.1513 233.739 40.7692C234.52 41.38 235.174 42.1257 235.699 43.0064C236.225 43.88 236.587 44.8778 236.786 46Z" fill="black"/>
<path id="O_2" d="M265.518 53.3551C265.158 55.6279 264.436 57.5271 263.353 59.0526C262.271 60.5781 260.942 61.6765 259.369 62.3477C257.796 63.0189 256.09 63.209 254.253 62.9179C252.415 62.6268 250.851 61.919 249.562 60.7945C248.274 59.6699 247.35 58.2149 246.791 56.4294C246.233 54.6439 246.134 52.6148 246.494 50.342C246.854 48.0691 247.575 46.17 248.658 44.6445C249.741 43.119 251.069 42.0206 252.642 41.3494C254.216 40.6781 255.921 40.488 257.759 40.7791C259.597 41.0702 261.16 41.778 262.449 42.9026C263.738 44.0271 264.661 45.4822 265.22 47.2676C265.779 49.0531 265.878 51.0823 265.518 53.3551ZM262.993 52.9551C263.288 51.0892 263.225 49.4649 262.804 48.0823C262.39 46.7008 261.706 45.5965 260.751 44.7693C259.803 43.9433 258.677 43.4269 257.372 43.2203C256.068 43.0136 254.833 43.1561 253.67 43.6477C252.513 44.1405 251.521 44.9793 250.693 46.1641C249.873 47.35 249.314 48.876 249.019 50.7419C248.723 52.6079 248.783 54.2316 249.197 55.6131C249.618 56.9957 250.302 58.1 251.25 58.926C252.205 59.7532 253.334 60.2701 254.639 60.4768C255.944 60.6834 257.175 60.5404 258.331 60.0476C259.495 59.556 260.487 58.7172 261.308 57.5313C262.135 56.3465 262.697 54.8211 262.993 52.9551Z" fill="black"/>
<path id="N_3" d="M294.595 50.7768L287.853 71.5271L285.421 70.737L279.408 50.7708L279.205 50.705L273.911 66.9972L271.398 66.1808L278.141 45.4305L280.572 46.2206L286.613 66.2405L286.816 66.3063L292.123 49.9735L294.595 50.7768Z" fill="black"/>
<path id="T_3" d="M304.387 57.4816L305.451 55.3933L320.032 62.8222L318.967 64.9105L312.854 61.7958L304.013 79.1476L301.659 77.9481L310.5 60.5963L304.387 57.4816Z" fill="black"/>
<path id="A_2" d="M320.482 88.8403L318.241 87.2122L337.546 74.2699L339.753 75.8729L333.41 98.2332L331.169 96.6051L336.69 77.914L336.552 77.8138L320.482 88.8403ZM326.319 82.5464L335.351 89.1089L333.973 91.005L324.941 84.4425L326.319 82.5464Z" fill="black"/>
<path id="C_4" d="M362.067 105.065L360.198 103.197C360.625 102.549 360.904 101.884 361.035 101.201C361.17 100.523 361.18 99.85 361.065 99.1821C360.959 98.5141 360.741 97.8738 360.409 97.2611C360.078 96.6484 359.656 96.086 359.144 95.5737C358.21 94.6396 357.127 94.0294 355.897 93.7432C354.672 93.4619 353.376 93.5574 352.01 94.0294C350.649 94.5065 349.301 95.413 347.965 96.7489C346.629 98.0847 345.722 99.4332 345.245 100.794C344.773 102.16 344.678 103.456 344.959 104.681C345.245 105.912 345.855 106.994 346.79 107.928C347.302 108.44 347.864 108.862 348.477 109.194C349.09 109.525 349.727 109.746 350.39 109.856C351.063 109.967 351.739 109.954 352.417 109.819C353.105 109.683 353.77 109.404 354.413 108.983L356.281 110.851C355.352 111.499 354.39 111.948 353.396 112.199C352.402 112.45 351.41 112.518 350.42 112.403C349.436 112.282 348.487 111.991 347.573 111.529C346.664 111.072 345.82 110.454 345.042 109.676C343.726 108.36 342.877 106.868 342.496 105.201C342.114 103.534 342.222 101.814 342.82 100.041C343.417 98.2681 344.53 96.5681 346.157 94.9409C347.784 93.3138 349.484 92.2014 351.257 91.6038C353.029 91.0061 354.749 90.8982 356.417 91.2798C358.084 91.6615 359.576 92.5103 360.891 93.826C361.67 94.6045 362.288 95.4482 362.745 96.3572C363.207 97.2712 363.495 98.2229 363.611 99.2122C363.731 100.197 363.666 101.186 363.415 102.18C363.169 103.17 362.719 104.131 362.067 105.065Z" fill="black"/>
<path id="T_4" d="M372.78 110.875L374.676 109.497L384.294 122.735L382.398 124.113L378.365 118.563L362.61 130.009L361.057 127.872L376.812 116.425L372.78 110.875Z" fill="black"/>
<path id="*_3" d="M394.486 172.229L398.996 170.942L395.38 167.95L396.767 166.424L400.124 169.724L400.9 165.081L402.919 165.501L401.752 170.047L406.158 168.436L406.79 170.381L402.279 171.668L405.895 174.66L404.509 176.186L401.151 172.886L400.375 177.529L398.357 177.109L399.523 172.563L395.118 174.174L394.486 172.229Z" fill="black"/>
<path id="J_2" d="M414.818 230.35V232.992H399.222C397.83 232.992 396.647 232.736 395.674 232.225C394.701 231.713 393.962 230.993 393.458 230.062C392.954 229.132 392.702 228.034 392.702 226.77C392.702 225.577 392.918 224.515 393.352 223.585C393.792 222.654 394.417 221.923 395.227 221.39C396.036 220.858 396.999 220.591 398.114 220.591V223.191C397.496 223.191 396.956 223.343 396.494 223.649C396.04 223.961 395.685 224.387 395.429 224.927C395.173 225.467 395.045 226.081 395.045 226.77C395.045 227.53 395.205 228.176 395.525 228.709C395.844 229.242 396.313 229.647 396.931 229.924C397.556 230.208 398.32 230.35 399.222 230.35H414.818Z" fill="black"/>
<path id="U_2" d="M412.012 262.719L411.598 265.328L397.33 263.068C395.857 262.835 394.597 262.28 393.549 261.402C392.508 260.532 391.753 259.417 391.286 258.055C390.825 256.695 390.729 255.17 390.996 253.479C391.264 251.789 391.827 250.368 392.685 249.217C393.551 248.067 394.614 247.235 395.874 246.723C397.14 246.219 398.51 246.084 399.983 246.317L414.251 248.577L413.838 251.186L399.78 248.96C398.728 248.793 397.755 248.876 396.861 249.209C395.974 249.543 395.228 250.101 394.622 250.883C394.022 251.672 393.628 252.667 393.438 253.866C393.248 255.066 393.316 256.133 393.642 257.07C393.975 258.007 394.513 258.768 395.254 259.353C396.002 259.946 396.902 260.326 397.954 260.492L412.012 262.719Z" fill="black"/>
<path id="N_4" d="M403.223 293.826L382.473 287.084L383.263 284.652L403.229 278.639L403.295 278.436L387.003 273.142L387.819 270.63L408.57 277.372L407.779 279.803L387.76 285.844L387.694 286.047L404.026 291.354L403.223 293.826Z" fill="black"/>
<path id="G_2" d="M385.486 315.415C386.232 315.532 386.945 315.548 387.625 315.464C388.308 315.39 388.95 315.211 389.549 314.926C390.145 314.648 390.688 314.263 391.178 313.771C391.668 313.28 392.091 312.682 392.449 311.98C393.036 310.828 393.272 309.629 393.158 308.383C393.044 307.137 392.549 305.941 391.675 304.794C390.801 303.647 389.522 302.645 387.838 301.787C386.155 300.929 384.591 300.487 383.146 300.46C381.701 300.433 380.436 300.749 379.351 301.408C378.266 302.067 377.417 302.998 376.805 304.2C376.237 305.314 375.975 306.415 376.017 307.505C376.063 308.605 376.401 309.614 377.033 310.534C377.667 311.463 378.58 312.23 379.769 312.837L379.25 313.481L382.229 307.633L384.317 308.697L380.545 316.101L378.457 315.037C376.856 314.222 375.638 313.171 374.802 311.884C373.964 310.604 373.524 309.2 373.481 307.672C373.442 306.153 373.816 304.622 374.602 303.078C375.479 301.357 376.655 300.051 378.129 299.16C379.6 298.275 381.268 297.849 383.132 297.883C384.993 297.922 386.949 298.464 388.999 299.509C390.537 300.292 391.815 301.203 392.833 302.24C393.854 303.286 394.605 304.41 395.085 305.611C395.565 306.812 395.771 308.049 395.705 309.322C395.638 310.595 395.287 311.855 394.652 313.102C394.129 314.127 393.487 315.004 392.726 315.732C391.967 316.469 391.129 317.043 390.211 317.452C389.297 317.87 388.331 318.116 387.314 318.187C386.303 318.262 385.281 318.148 384.248 317.845L385.486 315.415Z" fill="black"/>
<path id="H_2" d="M366.254 318.206L383.905 331.031L382.352 333.168L374.492 327.457L367.654 336.869L375.514 342.58L373.961 344.718L356.31 331.893L357.863 329.756L365.758 335.492L372.596 326.08L364.701 320.344L366.254 318.206Z" fill="black"/>
<path id="E_3" d="M349.365 339.654L364.793 355.082L355.482 364.393L353.825 362.736L361.267 355.293L356.054 350.08L349.094 357.041L347.436 355.383L354.397 348.423L349.154 343.18L341.591 350.743L339.933 349.086L349.365 339.654Z" fill="black"/>
<path id="E_4" d="M330.18 357.344L343.004 374.996L332.352 382.735L330.974 380.839L339.489 374.653L335.156 368.688L327.192 374.474L325.815 372.578L333.778 366.792L329.42 360.794L320.767 367.08L319.389 365.184L330.18 357.344Z" fill="black"/>
<path id="*_4" d="M281.772 393.717L283.058 398.227L286.05 394.612L287.576 395.998L284.276 399.355L288.919 400.132L288.499 402.15L283.953 400.983L285.564 405.389L283.619 406.021L282.332 401.51L279.34 405.126L277.814 403.74L281.114 400.382L276.471 399.606L276.891 397.588L281.437 398.754L279.826 394.349L281.772 393.717Z" fill="black"/>
</g>
</g>
</svg>
