<!DOCTYPE svg PUBLIC "-//W3C//DTD SVG 1.1//EN" "http://www.w3.org/Graphics/SVG/1.1/DTD/svg11.dtd">
<svg width="64px" height="64px" viewBox="0 0 6.35 6.35" version="1.1" xmlns="http://www.w3.org/2000/svg" fill="#000000">
    <g id="layer1" style="display:inline">
        <path d="M0.26485,5.82045a0.26458,0.26458 0 0 0-0.26563,0.26563 0.26458,0.26458 0 0 0 0.26563,0.26367h5.82031a0.26458,0.26458 0 0 0 0.26562,-0.26367 0.26458,0.26458 0 0 0-0.26562,-0.26563z" style="fill:#000000;stroke:none;"/>
        <path d="M1.16328,3.96889c-0.34722,0-0.63476,0.28754-0.63476,0.63477v1.48242a0.26461,0.26461 0 0 0 0.26562,0.26367h1.0586a0.26461,0.26461 0 0 0 0.26367,-0.26367v-1.48242c0,-0.34723-0.28755,-0.63477-0.63477,-0.63477z" style="fill:#000000;stroke:none;"/>
        <path d="M3.0168,3.0685c-0.34722,0-0.63477,0.28753-0.63477,0.63477v2.38281a0.26461,0.26461 0 0 0 0.26367,0.26367h1.0586a0.26461,0.26461 0 0 0 0.26367,-0.26367v-2.38281c0,-0.34724-0.28755,-0.63477-0.63477,-0.63477z" style="fill:#000000;stroke:none;"/>
        <path d="M4.86836,2.27553c-0.34722,0-0.63477,0.28754-0.63477,0.63477v3.17578a0.26461,0.26461 0 0 0 0.26368,0.26367h1.05859a0.26461,0.26461 0 0 0 0.26563,-0.26367v-3.17578c0,-0.34723-0.2895,-0.63477-0.63672,-0.63477z" style="fill:#000000;stroke:none;"/>
        <path d="M4.62052,0a0.26458,0.26458 0 0 0-0.26407,0.26358 0.26458,0.26458 0 0 0 0.26407,0.26562h0.27337C3.39748,1.81595 1.83063,2.61513 0.21614,2.91429a0.26458,0.26458 0 0 0-0.21084,0.30851 0.26458,0.26458 0 0 0 0.30644,0.21291C2.05009,3.1136 3.7227,2.24981 5.29231,0.88754V1.19915a0.26458,0.26458 0 0 0 0.26355,0.26562 0.26458,0.26458 0 0 0 0.26562,-0.26562V0.41987C5.82153,0.19151 5.62816,0 5.3998,0z" style="fill:#000000;stroke:none;"/>
    </g>
</svg>
