<svg width="267" height="41" viewBox="0 0 267 41" fill="none" xmlns="http://www.w3.org/2000/svg">
<path d="M5.288 27.696C5.352 29.264 5.752 30.704 6.488 32.016C7.256 33.296 8.344 34.32 9.752 35.088C11.192 35.856 12.888 36.24 14.84 36.24C17.848 36.24 20.2 35.36 21.896 33.6C23.624 31.808 24.488 29.44 24.488 26.496V1.536H29.576V26.496C29.576 29.344 28.952 31.856 27.704 34.032C26.488 36.208 24.76 37.888 22.52 39.072C20.312 40.256 17.752 40.848 14.84 40.848C11.992 40.848 9.464 40.272 7.256 39.12C5.048 37.968 3.336 36.4 2.12 34.416C0.936 32.432 0.312 30.192 0.248 27.696H5.288ZM41.7181 1.536V23.424C41.7181 25.984 42.1821 28.24 43.1101 30.192C44.0701 32.112 45.4301 33.616 47.1901 34.704C48.9821 35.76 51.0781 36.288 53.4781 36.288C55.8781 36.288 57.9581 35.76 59.7181 34.704C61.4781 33.616 62.8221 32.112 63.7501 30.192C64.7101 28.24 65.1901 25.984 65.1901 23.424V1.536H70.2301V23.424C70.2301 26.912 69.5421 29.984 68.1661 32.64C66.7901 35.264 64.8381 37.296 62.3101 38.736C59.7821 40.176 56.8381 40.896 53.4781 40.896C50.1181 40.896 47.1581 40.176 44.5981 38.736C42.0701 37.296 40.1181 35.264 38.7421 32.64C37.3661 29.984 36.6781 26.912 36.6781 23.424V1.536H41.7181ZM82.6445 1.536L105.925 31.488V1.296H111.013V39.744H106.261L82.9805 9.792V39.984H77.9405V1.536H82.6445ZM137.621 40.848C133.749 40.848 130.277 39.984 127.205 38.256C124.165 36.528 121.781 34.144 120.053 31.104C118.325 28.032 117.461 24.576 117.461 20.736C117.461 16.896 118.325 13.456 120.053 10.416C121.781 7.344 124.165 4.944 127.205 3.216C130.277 1.488 133.749 0.623998 137.621 0.623998C140.789 0.623998 143.701 1.2 146.357 2.352C149.045 3.472 151.285 5.024 153.077 7.008C154.869 8.992 156.101 11.216 156.773 13.68H151.301C150.789 12.08 149.861 10.64 148.517 9.36C147.205 8.08 145.605 7.072 143.717 6.336C141.861 5.6 139.861 5.232 137.717 5.232C134.805 5.232 132.181 5.904 129.845 7.248C127.541 8.56 125.733 10.4 124.421 12.768C123.141 15.104 122.501 17.76 122.501 20.736C122.501 23.712 123.141 26.4 124.421 28.8C125.733 31.168 127.557 33.024 129.893 34.368C132.229 35.68 134.869 36.336 137.813 36.336C140.405 36.336 142.741 35.808 144.821 34.752C146.933 33.696 148.629 32.256 149.909 30.432C151.189 28.576 151.925 26.496 152.117 24.192H136.805V19.824H157.493V21.552C157.493 25.264 156.613 28.592 154.853 31.536C153.125 34.448 150.741 36.72 147.701 38.352C144.693 40.016 141.333 40.848 137.621 40.848ZM196.309 1.536V39.984H191.269V22.608H168.949V39.984H163.909V1.536H168.949V18H191.269V1.536H196.309ZM231.862 1.536V6H209.59V18.096H230.182V22.56H209.59V35.52H232.294V39.984H204.55V1.536H231.862ZM266.081 1.536V6H243.809V18.096H264.401V22.56H243.809V35.52H266.513V39.984H238.769V1.536H266.081Z" fill="white"/>
</svg>
